# xmcd
#
# Track frame offsets: 
#        150
#        11101
#        22405
#        34863
#        45761
#        58739
#        69355
#        82285
#        95946
#        107723
#        119678
#        134066
#        145858
#        156642
#        169323
#        179551
#        191503
#        203627
#        213195
#        223866
#        238915
#
# Disc length: 3334 seconds
#
# Revision: 0
# Processed by: cddbd v1.5.2PL0 Copyright (c) Steve Scherf et al.
# Submitted via: ExactAudioCopy v0.99pb4
#
DISCID=520d0415
DTITLE=Deep River Boys - London Harmony [CD2]
DYEAR=2004
DGENRE=R&B
TTITLE0=A Kiss and A Cuddle Polka
TTITLE1=Sweet Mama Tree Top Tall
TTITLE2=My Castle On The Nile
TTITLE3=Lucky Black Cat
TTITLE4=Romance Al A Mode
TTITLE5=Shake Rattle and Roll
TTITLE6=St Louis Blues
TTITLE7=Smack Dab In The Middle
TTITLE8=I Wonder
TTITLE9=Rock Around The Clock
TTITLE10=Adam Never Had A Mummy
TTITLE11=Rock A Beatin' Boogie
TTITLE12=Just A Little Bit More
TTITLE13=That's Right
TTITLE14=Honey Honey
TTITLE15=Whole Lotta Shaking Goin' On
TTITLE16=There's A Goldmine In The Sky
TTITLE17=Not Too Old To Rock And Roll
TTITLE18=Slow Train To Nowhere
TTITLE19=I'm Confessin'
TTITLE20=Itchy Twitchy Feelin'
EXTD=
EXTT0=
EXTT1=
EXTT2=
EXTT3=
EXTT4=
EXTT5=
EXTT6=
EXTT7=
EXTT8=
EXTT9=
EXTT10=
EXTT11=
EXTT12=
EXTT13=
EXTT14=
EXTT15=
EXTT16=
EXTT17=
EXTT18=
EXTT19=
EXTT20=
PLAYORDER=
